<?xml version="1.0" encoding="UTF-8" standalone="no"?>
<svg
   xmlns:dc="http://purl.org/dc/elements/1.1/"
   xmlns:cc="http://creativecommons.org/ns#"
   xmlns:rdf="http://www.w3.org/1999/02/22-rdf-syntax-ns#"
   xmlns:svg="http://www.w3.org/2000/svg"
   xmlns="http://www.w3.org/2000/svg"
   viewBox="0 0 174.91751 203.81874"
   height="203.81874"
   width="174.91751"
   xml:space="preserve"
   version="1.1"
   id="svg2"><metadata
     id="metadata8"><rdf:RDF><cc:Work
         rdf:about=""><dc:format>image/svg+xml</dc:format><dc:type
           rdf:resource="http://purl.org/dc/dcmitype/StillImage" /><dc:title></dc:title></cc:Work></rdf:RDF></metadata><defs
     id="defs6" /><g
     transform="matrix(1.25,0,0,-1.25,0,203.81874)"
     id="g10"><g
       id="g12"><path
         id="path14"
         style="fill:#6573d0;fill-opacity:1;fill-rule:nonzero;stroke:none"
         d="m 48.918,112.094 -1.41,0 0,-12.742 -6.797,0 -7.242,-12.414 27.535,0 0,25.156 -12.086,0 z" /><path
         id="path16"
         style="fill:#6573d0;fill-opacity:1;fill-rule:nonzero;stroke:none"
         d="m 7.234,124.75 0,-1.578 39.411,0 0,9.219 -23.864,0 0,18.246 15.805,0 -7.242,12.418 -1.77,0 -22.34,-38.305 z" /><path
         id="path18"
         style="fill:#435cc8;fill-opacity:1;fill-rule:nonzero;stroke:none"
         d="m 1.188,163.055 0,-12.418 6.046,0 0,-25.887 22.344,38.305 -28.39,0 z" /><path
         id="path20"
         style="fill:#6573d0;fill-opacity:1;fill-rule:nonzero;stroke:none"
         d="m 8.516,40.371 c 5.558,-4.183 12.14,-5.023 19.558,-5.929 9.004,-1.137 16.895,-2.098 17.535,-9.492 l 8.996,15.421 -46.089,0 z" /><path
         id="path22"
         style="fill:#6573d0;fill-opacity:1;fill-rule:nonzero;stroke:none"
         d="m 40.266,15.782 c -2.344,-1.247 -5.328,-1.961 -8.739,-1.961 -4.746,0 -8.664,1.246 -11.828,3.601 L 29.223,1.094 c 0.73,-0.137 1.492,-0.25 2.277,-0.336 l 8.766,15.024 z" /><path
         id="path24"
         style="fill:#6573d0;fill-opacity:1;fill-rule:nonzero;stroke:none"
         d="m 57.117,78.278 -12.094,0 0,-8.098 c -2.394,2.719 -6.043,6.555 -12.679,8.367 l 13.379,-22.941 11.394,0 0,22.672 z" /><path
         id="path26"
         style="fill:#1fcbd4;fill-opacity:1;fill-rule:nonzero;stroke:none"
         d="m 54.77,40.653 c -0.25,0.257 -0.508,0.515 -0.778,0.769 -1.41,1.328 -3.082,2.582 -5.082,3.711 -4.531,2.481 -9.715,3.777 -18.461,4.75 -9.879,0.977 -14.027,2.402 -15.183,5.836 L 7.027,41.594 C 7.516,41.157 8.012,40.75 8.516,40.371 l 46.535,0 c -0.086,0.098 -0.192,0.188 -0.281,0.282" /><path
         id="path28"
         style="fill:#1fcbd4;fill-opacity:1;fill-rule:nonzero;stroke:none"
         d="m 33.469,86.934 7.242,12.418 -17.926,0 0,20.621 23.86,0 0,3.199 -39.411,0 0,-1.574 20.215,-34.664 6.02,0 z" /><path
         id="path30"
         style="fill:#1fcbd4;fill-opacity:1;fill-rule:nonzero;stroke:none"
         d="M 12.527,27.422 0,27.422 0,2.16 l 12.633,0 0,8.637 c 2.863,-2.953 7.808,-8.035 16.59,-9.703 l -9.524,16.328 c -3.094,2.305 -5.465,5.676 -7.172,10" /><path
         id="path32"
         style="fill:#1fcbd4;fill-opacity:1;fill-rule:nonzero;stroke:none"
         d="M 28.98,79.235 21.359,66.168 c 1.743,0.699 3.731,1.098 5.852,1.098 11.66,0.105 15.762,-7.344 18.137,-11.66 l 0.375,0 -13.379,22.941 c -1.043,0.285 -2.168,0.516 -3.364,0.688" /><path
         id="path34"
         style="fill:#00b09b;fill-opacity:1;fill-rule:nonzero;stroke:none"
         d="m 7.234,121.598 0,-22.246 -6.152,0 0,-12.418 26.367,0 -20.215,34.664 z" /><path
         id="path36"
         style="fill:#00b09b;fill-opacity:1;fill-rule:nonzero;stroke:none"
         d="M 24.188,79.575 C 10.906,79.575 0,69.641 0,57.438 0,52.043 1.945,46.965 5.398,43.188 5.93,42.61 6.477,42.09 7.027,41.594 l 8.239,14.125 c -0.246,0.731 -0.364,1.547 -0.364,2.477 0,3.421 2.61,6.429 6.457,7.972 l 7.621,13.063 c -1.476,0.215 -3.062,0.344 -4.792,0.344" /><path
         id="path38"
         style="fill:#6573d0;fill-opacity:1;fill-rule:nonzero;stroke:none"
         d="m 90.484,115.008 7.649,0 4.762,8.164 4.66,-7.988 c 6.711,0.683 12.324,3.555 16.14,7.988 l -48.761,0 0,-23.82 -6.047,0 0,-0.668 6.851,-11.75 6.02,0 8.726,14.957 0,13.117 z" /><path
         id="path40"
         style="fill:#6573d0;fill-opacity:1;fill-rule:nonzero;stroke:none"
         d="m 105.707,13.282 c -6.129,0 -11.094,2.48 -14.555,6.957 L 83.312,6.801 C 89.02,2.446 96.137,0 104.195,0 c 7.801,0 14.223,1.61 19.493,4.719 l -7.075,12.133 c -3.117,-2.352 -6.769,-3.57 -10.906,-3.57" /><path
         id="path42"
         style="fill:#a8aae5;fill-opacity:1;fill-rule:nonzero;stroke:none"
         d="m 138.312,78.278 -9.234,0 9.234,-15.836 0,15.836 z" /><path
         id="path44"
         style="fill:#8489d9;fill-opacity:1;fill-rule:nonzero;stroke:none"
         d="m 129.137,138.547 c 0,7.363 -2.516,13.539 -6.867,17.848 l -8.86,-15.192 c 0.11,-0.679 0.18,-1.378 0.18,-2.117 0,-5.039 -3,-9.035 -7.656,-10.703 l -3.039,-5.211 20.8,0 c 3.453,4.012 5.442,9.297 5.442,15.375" /><path
         id="path46"
         style="fill:#8489d9;fill-opacity:1;fill-rule:nonzero;stroke:none"
         d="m 124.277,28.289 c -1.621,-4.535 -3.132,-6.91 -4.75,-8.746 -0.914,-1.019 -1.882,-1.918 -2.914,-2.695 l 7.075,-12.129 c 7.785,4.594 13.023,12.492 16.246,23.57 l -15.657,0 z" /><path
         id="path48"
         style="fill:#8489d9;fill-opacity:1;fill-rule:nonzero;stroke:none"
         d="m 119.957,60.246 c 1.836,-2.16 3.023,-3.992 4.645,-8.312 l 13.71,0 0,10.508 -9.234,15.836 -4.047,0 0,-8.746 c -0.886,1.128 -1.867,2.359 -3.051,3.57 l -5.621,-9.641 c 1.297,-0.91 2.512,-1.972 3.598,-3.215" /><path
         id="path50"
         style="fill:#435cc8;fill-opacity:1;fill-rule:nonzero;stroke:none"
         d="m 104.41,115.008 c 1.074,0 2.117,0.07 3.145,0.176 l -4.66,7.988 -4.762,-8.164 6.277,0 z" /><path
         id="path52"
         style="fill:#435cc8;fill-opacity:1;fill-rule:nonzero;stroke:none"
         d="m 90.484,150.637 9.715,0 c 7.356,0 12.27,-3.562 13.211,-9.434 l 8.863,15.192 c -4.257,4.222 -10.273,6.66 -17.429,6.66 l -25.211,0 10.851,-18.602 0,6.184 z" /><path
         id="path54"
         style="fill:#435cc8;fill-opacity:1;fill-rule:nonzero;stroke:none"
         d="m 100.848,127.532 -0.496,0 2.543,-4.36 3.039,5.211 c -1.532,-0.551 -3.243,-0.851 -5.086,-0.851" /><path
         id="path56"
         style="fill:#435cc8;fill-opacity:1;fill-rule:nonzero;stroke:none"
         d="m 85.637,40.371 -16.848,0 c 0,-0.175 -0.008,-0.351 -0.008,-0.531 0,-14.433 5.489,-26.137 14.531,-33.039 l 7.84,13.438 c -3.554,4.593 -5.531,11.289 -5.531,19.601 0,0.184 0.016,0.352 0.016,0.531" /><path
         id="path58"
         style="fill:#435cc8;fill-opacity:1;fill-rule:nonzero;stroke:none"
         d="M 83.453,73.707 91.238,60.36 c 3.36,4.273 8.137,6.582 14.145,6.582 4,0 7.765,-1.227 10.976,-3.481 l 5.621,9.641 c -3.562,3.648 -8.949,7.121 -19.082,7.121 -7.414,0 -14.043,-2.352 -19.445,-6.516" /><path
         id="path60"
         style="fill:#270089;fill-opacity:1;fill-rule:nonzero;stroke:none"
         d="m 46.754,150.637 0,-11.445 12.738,0 0,23.863 -28.148,0 7.242,-12.418 8.168,0 z" /><path
         id="path62"
         style="fill:#270089;fill-opacity:1;fill-rule:nonzero;stroke:none"
         d="m 90.484,101.891 -8.726,-14.953 14.664,0 0,12.414 -5.938,0 0,2.539 z" /><path
         id="path64"
         style="fill:#270089;fill-opacity:1;fill-rule:nonzero;stroke:none"
         d="m 68.887,86.938 6.851,0 -6.851,11.746 0,-11.746 z" /><path
         id="path66"
         style="fill:#270089;fill-opacity:1;fill-rule:nonzero;stroke:none"
         d="m 70.625,150.637 4.309,0 0,-27.465 27.961,0 -2.543,4.36 -9.872,0 0,16.921 -10.847,18.602 -10.852,0 0,-12.418 1.844,0 z" /><path
         id="path68"
         style="fill:#270089;fill-opacity:1;fill-rule:nonzero;stroke:none"
         d="m 60.367,30.492 c -0.758,3.149 -2.312,6.672 -5.316,9.879 l -0.446,0 -8.996,-15.421 c 0.028,-0.321 0.063,-0.637 0.063,-0.981 0,-3.504 -2.039,-6.394 -5.406,-8.187 L 31.5,0.758 c 1.176,-0.133 2.398,-0.219 3.699,-0.219 14.469,0 25.805,10.907 25.805,24.727 0,1.484 -0.168,3.285 -0.637,5.226 z" /><path
         id="path70"
         style="fill:#270089;fill-opacity:1;fill-rule:nonzero;stroke:none"
         d="m 68.789,40.371 16.848,0 c 0.078,8.672 2.035,15.446 5.601,19.989 L 83.453,73.711 C 74.492,66.801 68.926,54.883 68.789,40.371" /></g></g></svg>